<mxfile host="app.diagrams.net" modified="2022-03-14T07:35:04.415Z" agent="5.0 (Windows NT 10.0; Win64; x64) AppleWebKit/537.36 (KHTML, like Gecko) Chrome/99.0.4844.51 Safari/537.36" etag="gmFqnDTE5aedg8gqCR8s" version="17.1.2" type="github">
  <diagram id="m8cBfaZCv6HNN2lWV1tS" name="Page-1">
    <mxGraphModel dx="1776" dy="587" grid="1" gridSize="10" guides="1" tooltips="1" connect="1" arrows="1" fold="1" page="0" pageScale="1" pageWidth="827" pageHeight="1169" math="0" shadow="0">
      <root>
        <mxCell id="0" />
        <mxCell id="1" parent="0" />
        <mxCell id="dBMSuhI64eVUhAbM2P2l-1" value="&lt;font face=&quot;Verdana&quot; style=&quot;font-size: 36px&quot;&gt;Text Quiz Game&lt;/font&gt;" style="text;html=1;strokeColor=none;fillColor=none;align=center;verticalAlign=middle;whiteSpace=wrap;rounded=0;" parent="1" vertex="1">
          <mxGeometry x="170" y="20" width="510" height="30" as="geometry" />
        </mxCell>
        <mxCell id="dBMSuhI64eVUhAbM2P2l-4" value="&lt;font style=&quot;font-size: 24px&quot;&gt;Start&lt;/font&gt;" style="strokeWidth=2;html=1;shape=mxgraph.flowchart.start_1;whiteSpace=wrap;fontFamily=Verdana;fontSize=36;" parent="1" vertex="1">
          <mxGeometry x="336" y="80" width="156" height="60" as="geometry" />
        </mxCell>
        <mxCell id="dBMSuhI64eVUhAbM2P2l-9" value="" style="edgeStyle=orthogonalEdgeStyle;rounded=0;orthogonalLoop=1;jettySize=auto;html=1;fontFamily=Verdana;fontSize=12;" parent="1" source="dBMSuhI64eVUhAbM2P2l-5" target="dBMSuhI64eVUhAbM2P2l-8" edge="1">
          <mxGeometry relative="1" as="geometry" />
        </mxCell>
        <mxCell id="dBMSuhI64eVUhAbM2P2l-5" value="&lt;font style=&quot;font-size: 24px&quot;&gt;Welcome&lt;/font&gt;" style="rounded=0;whiteSpace=wrap;html=1;fontFamily=Verdana;fontSize=36;align=center;" parent="1" vertex="1">
          <mxGeometry x="326" y="180" width="176" height="60" as="geometry" />
        </mxCell>
        <mxCell id="dBMSuhI64eVUhAbM2P2l-6" value="" style="endArrow=classic;html=1;rounded=0;fontFamily=Verdana;fontSize=24;" parent="1" source="dBMSuhI64eVUhAbM2P2l-4" target="dBMSuhI64eVUhAbM2P2l-5" edge="1">
          <mxGeometry width="50" height="50" relative="1" as="geometry">
            <mxPoint x="470" y="440" as="sourcePoint" />
            <mxPoint x="520" y="390" as="targetPoint" />
          </mxGeometry>
        </mxCell>
        <mxCell id="dBMSuhI64eVUhAbM2P2l-16" style="edgeStyle=orthogonalEdgeStyle;rounded=0;orthogonalLoop=1;jettySize=auto;html=1;exitX=0;exitY=0.5;exitDx=0;exitDy=0;entryX=0.5;entryY=0;entryDx=0;entryDy=0;fontFamily=Verdana;fontSize=18;fontColor=#000000;" parent="1" source="dBMSuhI64eVUhAbM2P2l-8" target="dBMSuhI64eVUhAbM2P2l-13" edge="1">
          <mxGeometry relative="1" as="geometry" />
        </mxCell>
        <mxCell id="dBMSuhI64eVUhAbM2P2l-17" value="Yes" style="edgeLabel;html=1;align=center;verticalAlign=middle;resizable=0;points=[];fontSize=18;fontFamily=Verdana;fontColor=#000000;" parent="dBMSuhI64eVUhAbM2P2l-16" vertex="1" connectable="0">
          <mxGeometry x="-0.2052" y="2" relative="1" as="geometry">
            <mxPoint y="-3" as="offset" />
          </mxGeometry>
        </mxCell>
        <mxCell id="dBMSuhI64eVUhAbM2P2l-8" value="&lt;font style=&quot;font-size: 12px&quot;&gt;&quot;Do you want to play?&quot;&lt;/font&gt;" style="rhombus;whiteSpace=wrap;html=1;fontFamily=Verdana;fontSize=24;" parent="1" vertex="1">
          <mxGeometry x="317" y="270" width="194" height="130" as="geometry" />
        </mxCell>
        <mxCell id="dBMSuhI64eVUhAbM2P2l-11" style="edgeStyle=orthogonalEdgeStyle;rounded=0;orthogonalLoop=1;jettySize=auto;html=1;exitX=1;exitY=0.5;exitDx=0;exitDy=0;entryX=0.5;entryY=0;entryDx=0;entryDy=0;fontFamily=Verdana;fontSize=14;" parent="1" source="dBMSuhI64eVUhAbM2P2l-8" target="dBMSuhI64eVUhAbM2P2l-10" edge="1">
          <mxGeometry relative="1" as="geometry" />
        </mxCell>
        <mxCell id="dBMSuhI64eVUhAbM2P2l-12" value="No" style="edgeLabel;html=1;align=center;verticalAlign=middle;resizable=0;points=[];fontSize=18;fontFamily=Verdana;fontStyle=0;horizontal=1;fontColor=#000000;" parent="dBMSuhI64eVUhAbM2P2l-11" vertex="1" connectable="0">
          <mxGeometry x="-0.5043" y="2" relative="1" as="geometry">
            <mxPoint x="31" y="1" as="offset" />
          </mxGeometry>
        </mxCell>
        <mxCell id="dBMSuhI64eVUhAbM2P2l-15" style="edgeStyle=orthogonalEdgeStyle;rounded=0;orthogonalLoop=1;jettySize=auto;html=1;exitX=0.5;exitY=1;exitDx=0;exitDy=0;entryX=0.5;entryY=0;entryDx=0;entryDy=0;fontFamily=Verdana;fontSize=18;fontColor=#000000;" parent="1" source="dBMSuhI64eVUhAbM2P2l-10" target="dBMSuhI64eVUhAbM2P2l-14" edge="1">
          <mxGeometry relative="1" as="geometry" />
        </mxCell>
        <mxCell id="dBMSuhI64eVUhAbM2P2l-10" value="&lt;p&gt;&lt;font style=&quot;font-size: 14px ; line-height: 1.1&quot;&gt;&quot;Hope you&#39;ll play next time&quot;&lt;/font&gt;&lt;/p&gt;" style="rounded=0;whiteSpace=wrap;html=1;fontFamily=Verdana;fontSize=24;" parent="1" vertex="1">
          <mxGeometry x="740" y="370" width="200" height="60" as="geometry" />
        </mxCell>
        <mxCell id="dBMSuhI64eVUhAbM2P2l-19" style="edgeStyle=orthogonalEdgeStyle;rounded=0;orthogonalLoop=1;jettySize=auto;html=1;exitX=0.5;exitY=1;exitDx=0;exitDy=0;entryX=0.5;entryY=0;entryDx=0;entryDy=0;fontFamily=Verdana;fontSize=18;fontColor=#000000;" parent="1" source="dBMSuhI64eVUhAbM2P2l-13" target="dBMSuhI64eVUhAbM2P2l-18" edge="1">
          <mxGeometry relative="1" as="geometry" />
        </mxCell>
        <mxCell id="dBMSuhI64eVUhAbM2P2l-13" value="&lt;span style=&quot;font-size: 14px ; line-height: 1&quot;&gt;&quot;Thanks for playing&quot;&lt;/span&gt;" style="rounded=0;whiteSpace=wrap;html=1;fontFamily=Verdana;fontSize=24;" parent="1" vertex="1">
          <mxGeometry x="-35" y="370" width="150" height="60" as="geometry" />
        </mxCell>
        <mxCell id="dBMSuhI64eVUhAbM2P2l-14" value="&lt;font style=&quot;font-size: 14px&quot;&gt;End Program&lt;/font&gt;" style="rounded=0;whiteSpace=wrap;html=1;fontFamily=Verdana;fontSize=24;" parent="1" vertex="1">
          <mxGeometry x="780" y="490" width="120" height="60" as="geometry" />
        </mxCell>
        <mxCell id="dBMSuhI64eVUhAbM2P2l-41" style="edgeStyle=orthogonalEdgeStyle;rounded=0;orthogonalLoop=1;jettySize=auto;html=1;exitX=0.5;exitY=1;exitDx=0;exitDy=0;entryX=0.5;entryY=0;entryDx=0;entryDy=0;fontFamily=Verdana;fontSize=18;fontColor=#000000;" parent="1" source="dBMSuhI64eVUhAbM2P2l-18" target="dBMSuhI64eVUhAbM2P2l-31" edge="1">
          <mxGeometry relative="1" as="geometry" />
        </mxCell>
        <mxCell id="dBMSuhI64eVUhAbM2P2l-18" value="&lt;font style=&quot;font-size: 18px&quot;&gt;Printing Out the &lt;br&gt;Scoring System&lt;/font&gt;" style="rounded=0;whiteSpace=wrap;html=1;fontFamily=Verdana;fontSize=18;fontColor=#000000;" parent="1" vertex="1">
          <mxGeometry x="-97.5" y="490" width="275" height="110" as="geometry" />
        </mxCell>
        <mxCell id="dBMSuhI64eVUhAbM2P2l-24" style="edgeStyle=orthogonalEdgeStyle;rounded=0;orthogonalLoop=1;jettySize=auto;html=1;exitX=0;exitY=0.5;exitDx=0;exitDy=0;entryX=0.5;entryY=0;entryDx=0;entryDy=0;fontFamily=Verdana;fontSize=18;fontColor=#000000;" parent="1" target="dBMSuhI64eVUhAbM2P2l-23" edge="1">
          <mxGeometry relative="1" as="geometry">
            <mxPoint x="-114.07999999999993" y="1156" as="sourcePoint" />
          </mxGeometry>
        </mxCell>
        <mxCell id="dBMSuhI64eVUhAbM2P2l-25" value="Right" style="edgeLabel;html=1;align=center;verticalAlign=middle;resizable=0;points=[];fontSize=18;fontFamily=Verdana;fontColor=#000000;" parent="dBMSuhI64eVUhAbM2P2l-24" vertex="1" connectable="0">
          <mxGeometry x="-0.0984" y="5" relative="1" as="geometry">
            <mxPoint y="-5" as="offset" />
          </mxGeometry>
        </mxCell>
        <mxCell id="dBMSuhI64eVUhAbM2P2l-28" style="edgeStyle=orthogonalEdgeStyle;rounded=0;orthogonalLoop=1;jettySize=auto;html=1;exitX=1;exitY=0.5;exitDx=0;exitDy=0;fontFamily=Verdana;fontSize=18;fontColor=#000000;" parent="1" edge="1">
          <mxGeometry relative="1" as="geometry">
            <mxPoint x="194.07000000000016" y="1156" as="sourcePoint" />
            <mxPoint x="500" y="1230" as="targetPoint" />
          </mxGeometry>
        </mxCell>
        <mxCell id="dBMSuhI64eVUhAbM2P2l-29" value="Wrong" style="edgeLabel;html=1;align=center;verticalAlign=middle;resizable=0;points=[];fontSize=18;fontFamily=Verdana;fontColor=#000000;" parent="dBMSuhI64eVUhAbM2P2l-28" vertex="1" connectable="0">
          <mxGeometry x="-0.472" y="-1" relative="1" as="geometry">
            <mxPoint y="-1" as="offset" />
          </mxGeometry>
        </mxCell>
        <mxCell id="dBMSuhI64eVUhAbM2P2l-21" value="Questions" style="rhombus;whiteSpace=wrap;html=1;fontFamily=Verdana;fontSize=18;fontColor=#000000;" parent="1" vertex="1">
          <mxGeometry x="-114.08" y="1020" width="308.15" height="270" as="geometry" />
        </mxCell>
        <mxCell id="dBMSuhI64eVUhAbM2P2l-26" style="edgeStyle=orthogonalEdgeStyle;rounded=0;orthogonalLoop=1;jettySize=auto;html=1;exitX=0.5;exitY=1;exitDx=0;exitDy=0;entryX=0.5;entryY=1;entryDx=0;entryDy=0;fontFamily=Verdana;fontSize=18;fontColor=#000000;" parent="1" source="dBMSuhI64eVUhAbM2P2l-23" edge="1">
          <mxGeometry relative="1" as="geometry">
            <mxPoint x="39.99499999999989" y="1291" as="targetPoint" />
            <Array as="points">
              <mxPoint x="-360" y="1381" />
              <mxPoint x="45" y="1381" />
            </Array>
          </mxGeometry>
        </mxCell>
        <mxCell id="dBMSuhI64eVUhAbM2P2l-23" value="&quot;Correct&quot;&lt;br&gt;score += 1" style="rounded=0;whiteSpace=wrap;html=1;fontFamily=Verdana;fontSize=18;fontColor=#000000;" parent="1" vertex="1">
          <mxGeometry x="-425" y="1231" width="120" height="60" as="geometry" />
        </mxCell>
        <mxCell id="dBMSuhI64eVUhAbM2P2l-30" style="edgeStyle=orthogonalEdgeStyle;rounded=0;orthogonalLoop=1;jettySize=auto;html=1;exitX=0.5;exitY=1;exitDx=0;exitDy=0;entryX=0.5;entryY=1;entryDx=0;entryDy=0;fontFamily=Verdana;fontSize=18;fontColor=#000000;" parent="1" edge="1">
          <mxGeometry relative="1" as="geometry">
            <mxPoint x="500" y="1281" as="sourcePoint" />
            <mxPoint x="39.99499999999989" y="1291" as="targetPoint" />
            <Array as="points">
              <mxPoint x="500" y="1381" />
              <mxPoint x="40" y="1381" />
            </Array>
          </mxGeometry>
        </mxCell>
        <mxCell id="dBMSuhI64eVUhAbM2P2l-27" value="&quot;Incorrect&quot;&lt;br&gt;score += 0" style="rounded=0;whiteSpace=wrap;html=1;fontFamily=Verdana;fontSize=18;fontColor=#000000;" parent="1" vertex="1">
          <mxGeometry x="440" y="1231" width="120" height="60" as="geometry" />
        </mxCell>
        <mxCell id="dBMSuhI64eVUhAbM2P2l-32" style="edgeStyle=orthogonalEdgeStyle;rounded=0;orthogonalLoop=1;jettySize=auto;html=1;exitX=0.5;exitY=1;exitDx=0;exitDy=0;entryX=0.5;entryY=0;entryDx=0;entryDy=0;fontFamily=Verdana;fontSize=18;fontColor=#000000;" parent="1" source="dBMSuhI64eVUhAbM2P2l-31" target="dBMSuhI64eVUhAbM2P2l-21" edge="1">
          <mxGeometry relative="1" as="geometry" />
        </mxCell>
        <mxCell id="dBMSuhI64eVUhAbM2P2l-33" value="Yes" style="edgeLabel;html=1;align=center;verticalAlign=middle;resizable=0;points=[];fontSize=18;fontFamily=Verdana;fontColor=#000000;" parent="dBMSuhI64eVUhAbM2P2l-32" vertex="1" connectable="0">
          <mxGeometry x="-0.28" y="1" relative="1" as="geometry">
            <mxPoint as="offset" />
          </mxGeometry>
        </mxCell>
        <mxCell id="dBMSuhI64eVUhAbM2P2l-37" style="edgeStyle=orthogonalEdgeStyle;rounded=0;orthogonalLoop=1;jettySize=auto;html=1;exitX=1;exitY=0.5;exitDx=0;exitDy=0;fontFamily=Verdana;fontSize=18;fontColor=#000000;" parent="1" source="dBMSuhI64eVUhAbM2P2l-31" target="dBMSuhI64eVUhAbM2P2l-35" edge="1">
          <mxGeometry relative="1" as="geometry" />
        </mxCell>
        <mxCell id="dBMSuhI64eVUhAbM2P2l-38" value="No" style="edgeLabel;html=1;align=center;verticalAlign=middle;resizable=0;points=[];fontSize=18;fontFamily=Verdana;fontColor=#000000;" parent="dBMSuhI64eVUhAbM2P2l-37" vertex="1" connectable="0">
          <mxGeometry x="-0.2657" y="2" relative="1" as="geometry">
            <mxPoint as="offset" />
          </mxGeometry>
        </mxCell>
        <mxCell id="dBMSuhI64eVUhAbM2P2l-31" value="Is question left?" style="rhombus;whiteSpace=wrap;html=1;fontFamily=Verdana;fontSize=18;fontColor=#000000;" parent="1" vertex="1">
          <mxGeometry x="-66.67" y="720" width="213.33" height="200" as="geometry" />
        </mxCell>
        <mxCell id="dBMSuhI64eVUhAbM2P2l-40" style="edgeStyle=orthogonalEdgeStyle;rounded=0;orthogonalLoop=1;jettySize=auto;html=1;exitX=1;exitY=0.5;exitDx=0;exitDy=0;entryX=0;entryY=0.5;entryDx=0;entryDy=0;fontFamily=Verdana;fontSize=18;fontColor=#000000;" parent="1" source="dBMSuhI64eVUhAbM2P2l-34" target="dBMSuhI64eVUhAbM2P2l-36" edge="1">
          <mxGeometry relative="1" as="geometry" />
        </mxCell>
        <mxCell id="dBMSuhI64eVUhAbM2P2l-34" value="&lt;font style=&quot;font-size: 14px&quot;&gt;Thank the player for playing&lt;/font&gt;" style="rounded=0;whiteSpace=wrap;html=1;fontFamily=Verdana;fontSize=24;" parent="1" vertex="1">
          <mxGeometry x="620" y="790" width="270" height="60" as="geometry" />
        </mxCell>
        <mxCell id="dBMSuhI64eVUhAbM2P2l-39" style="edgeStyle=orthogonalEdgeStyle;rounded=0;orthogonalLoop=1;jettySize=auto;html=1;exitX=1;exitY=0.5;exitDx=0;exitDy=0;fontFamily=Verdana;fontSize=18;fontColor=#000000;" parent="1" source="dBMSuhI64eVUhAbM2P2l-35" target="dBMSuhI64eVUhAbM2P2l-34" edge="1">
          <mxGeometry relative="1" as="geometry" />
        </mxCell>
        <mxCell id="dBMSuhI64eVUhAbM2P2l-35" value="&lt;p&gt;&lt;span style=&quot;font-size: 14px&quot;&gt;&quot;Show player score&quot;&lt;/span&gt;&lt;/p&gt;" style="rounded=0;whiteSpace=wrap;html=1;fontFamily=Verdana;fontSize=24;" parent="1" vertex="1">
          <mxGeometry x="311" y="790" width="200" height="60" as="geometry" />
        </mxCell>
        <mxCell id="dBMSuhI64eVUhAbM2P2l-36" value="&lt;font style=&quot;font-size: 14px&quot;&gt;End Program&lt;/font&gt;" style="rounded=0;whiteSpace=wrap;html=1;fontFamily=Verdana;fontSize=24;" parent="1" vertex="1">
          <mxGeometry x="1010" y="790" width="120" height="60" as="geometry" />
        </mxCell>
      </root>
    </mxGraphModel>
  </diagram>
</mxfile>
